<?xml version="1.0" standalone="no"?>
<!DOCTYPE svg PUBLIC "-//W3C//DTD SVG 20010904//EN"
 "http://www.w3.org/TR/2001/REC-SVG-20010904/DTD/svg10.dtd">
<svg version="1.0" xmlns="http://www.w3.org/2000/svg"
 width="800.000000pt" height="800.000000pt" viewBox="0 0 800.000000 800.000000"
 preserveAspectRatio="xMidYMid meet">
<metadata>
Created by potrace 1.14, written by Peter Selinger 2001-2017
</metadata>
<g transform="translate(0.000000,800.000000) scale(0.100000,-0.100000)"
fill="#000000" stroke="none">
<path d="M3690 7385 c-254 -23 -502 -74 -745 -154 -216 -71 -419 -157 -409
-173 3 -4 -2 -5 -10 -2 -26 10 -353 -175 -338 -191 4 -5 2 -5 -5 -1 -10 6 -67
-29 -190 -117 -23 -16 -40 -34 -36 -40 3 -6 1 -7 -5 -4 -5 4 -36 -14 -67 -39
-49 -40 -54 -48 -43 -62 12 -15 11 -16 -5 -3 -20 16 -16 19 -146 -104 -200
-188 -400 -412 -384 -429 4 -3 2 -6 -4 -6 -26 0 -274 -374 -277 -416 0 -12 -4
-20 -8 -18 -16 10 -173 -319 -163 -344 3 -9 3 -13 -1 -9 -9 9 -42 -70 -90
-213 -165 -496 -209 -1044 -128 -1592 9 -59 20 -105 24 -103 5 3 12 0 16 -6 4
-8 3 -9 -4 -5 -20 12 -14 -25 27 -186 58 -225 139 -457 155 -441 4 4 4 0 1 -9
-4 -10 11 -53 35 -105 23 -48 51 -107 62 -131 17 -38 21 -42 36 -30 15 12 16
11 4 -4 -18 -23 15 -86 164 -315 67 -103 96 -138 80 -97 -3 9 -2 12 5 9 6 -4
8 -14 5 -22 -14 -36 265 -358 480 -553 89 -81 93 -83 112 -69 15 13 16 12 4
-3 -11 -14 -6 -22 43 -62 31 -25 62 -43 67 -39 6 3 8 2 5 -4 -4 -6 13 -24 36
-40 123 -88 180 -123 190 -117 7 4 9 4 5 -1 -8 -9 51 -49 162 -107 41 -23 85
-47 98 -55 12 -7 28 -11 35 -7 7 4 9 3 4 -1 -26 -30 657 -281 710 -261 8 3 12
2 9 -3 -5 -7 124 -37 272 -62 98 -16 401 -39 527 -39 246 0 511 31 772 91 259
59 704 223 686 252 -3 6 -1 7 6 3 16 -10 53 3 45 16 -4 7 -2 8 4 4 6 -4 22 0
34 7 13 8 57 32 98 55 111 58 170 98 162 107 -4 5 -2 5 5 1 10 -6 67 29 190
117 23 16 40 34 36 40 -3 6 -1 7 5 4 25 -16 339 268 513 464 67 74 142 169
135 169 -2 0 12 17 30 37 22 23 32 43 29 54 -3 10 -1 20 4 24 7 4 9 -1 5 -12
-11 -36 47 44 130 177 99 159 129 217 121 231 -4 5 -2 8 4 7 14 -4 134 249
127 268 -3 9 -1 12 4 9 6 -3 10 0 10 7 0 7 7 26 15 41 39 75 140 420 160 546
6 34 4 42 -5 36 -9 -5 -11 -4 -6 4 4 6 11 9 15 6 5 -2 13 28 20 68 64 404 59
837 -14 1202 -55 278 -175 662 -199 638 -4 -4 -4 0 -1 9 8 21 -110 274 -126
270 -6 -1 -8 2 -4 7 14 24 -157 303 -307 500 -122 160 -250 300 -413 451 -112
103 -113 104 -133 89 -15 -13 -16 -12 -4 3 11 14 6 22 -43 62 -31 25 -62 43
-67 39 -6 -3 -8 -2 -5 4 4 6 -13 24 -36 40 -121 87 -180 123 -189 117 -6 -4
-8 -3 -5 3 8 13 -41 36 -55 27 -7 -4 -8 -2 -4 4 5 9 -61 62 -77 62 -3 0 -37
18 -77 40 -40 22 -77 37 -83 33 -5 -3 -7 -1 -3 5 8 13 -29 26 -45 16 -7 -4 -9
-3 -6 3 18 29 -425 192 -684 252 -200 45 -296 60 -489 76 -208 17 -402 17
-600 0z m748 -60 c342 -47 684 -147 974 -283 59 -28 118 -54 130 -58 13 -4 25
-10 28 -13 14 -19 172 -101 182 -95 6 4 8 3 5 -3 -4 -6 30 -34 74 -62 84 -53
95 -58 83 -39 -4 7 -3 8 5 4 6 -4 9 -11 6 -16 -7 -12 22 -33 36 -24 7 4 9 3 6
-3 -8 -13 18 -37 31 -30 4 3 14 1 22 -5 12 -8 11 -8 -5 -3 -13 4 -8 -5 15 -24
36 -31 61 -42 41 -18 -8 10 -7 14 3 14 7 0 13 -8 12 -18 -1 -21 182 -181 197
-172 6 3 7 2 4 -3 -3 -6 43 -59 104 -118 60 -60 109 -111 109 -113 0 -2 33
-42 73 -88 47 -54 76 -80 83 -74 7 5 11 3 11 -6 0 -8 -4 -12 -9 -9 -16 10 -8
-13 10 -29 15 -13 21 -14 32 -4 12 10 12 9 0 -6 -11 -15 -11 -20 0 -30 10 -10
11 -9 5 3 -5 9 -4 12 1 7 5 -5 9 -16 9 -25 0 -9 6 -16 13 -14 8 1 11 -2 7 -8
-9 -14 14 -42 28 -33 5 3 7 2 4 -4 -3 -5 8 -32 26 -59 18 -27 45 -71 61 -98
22 -37 31 -45 38 -35 7 11 8 9 4 -5 -4 -12 3 -34 19 -58 14 -21 30 -50 35 -64
6 -14 14 -22 20 -19 6 4 7 -1 3 -11 -5 -13 -3 -15 7 -9 8 5 11 4 6 -3 -3 -6
12 -46 33 -90 161 -318 276 -721 323 -1127 16 -142 16 -548 0 -690 -47 -406
-162 -809 -323 -1127 -21 -44 -36 -84 -33 -90 4 -7 2 -8 -5 -4 -7 5 -17 -6
-27 -29 -8 -21 -26 -54 -40 -75 -15 -23 -22 -44 -18 -56 4 -13 3 -15 -4 -6 -7
10 -13 7 -25 -12 -10 -14 -17 -28 -17 -30 0 -3 -20 -36 -45 -72 -24 -37 -42
-71 -38 -77 3 -6 2 -7 -4 -4 -15 9 -53 -48 -48 -72 2 -12 0 -19 -6 -16 -5 4
-6 12 -3 18 4 7 -7 -4 -24 -23 -30 -33 -42 -57 -24 -46 5 3 9 -1 9 -9 0 -10
-4 -11 -11 -6 -12 10 -131 -121 -131 -144 0 -8 -4 -17 -9 -22 -5 -4 -6 -3 -2
4 4 7 2 13 -3 13 -6 0 -11 -4 -11 -9 0 -12 -218 -225 -320 -312 -47 -40 -84
-77 -82 -82 1 -5 -1 -6 -6 -3 -5 3 -28 -8 -50 -25 -45 -33 -52 -42 -24 -32 9
3 14 3 11 -1 -4 -4 -16 -8 -28 -11 -31 -6 -42 -15 -35 -27 4 -7 2 -8 -5 -4
-17 11 -40 -12 -36 -35 2 -11 0 -17 -6 -14 -5 4 -7 11 -4 16 11 17 -4 9 -82
-42 -43 -28 -77 -55 -75 -61 1 -5 -2 -7 -7 -3 -6 3 -56 -20 -113 -52 -375
-210 -802 -349 -1248 -405 -140 -17 -640 -17 -780 0 -209 26 -441 77 -618 134
-51 16 -100 27 -108 24 -8 -3 -13 -2 -10 3 3 4 -27 20 -67 36 -122 46 -337
147 -445 208 -56 32 -108 55 -114 51 -6 -4 -8 -3 -5 3 4 6 -30 34 -74 62 -84
53 -95 58 -83 39 4 -7 3 -8 -5 -4 -6 4 -9 11 -6 16 7 12 -22 33 -36 24 -7 -4
-9 -3 -6 3 4 6 -5 19 -19 28 -15 9 -23 12 -19 5 6 -9 2 -9 -16 0 -32 17 -39
25 -14 16 17 -6 17 -4 -4 18 -25 26 -53 37 -32 13 8 -10 7 -14 -3 -14 -7 0
-13 8 -12 18 1 10 -36 48 -89 94 -96 82 -324 302 -324 313 0 4 -5 8 -12 11 -8
2 -9 -1 -4 -10 5 -8 4 -11 -1 -6 -5 5 -9 14 -9 22 0 23 -119 154 -131 144 -7
-5 -11 -4 -11 6 0 8 4 12 9 9 18 -11 6 13 -24 46 -17 19 -28 30 -24 23 3 -6 2
-14 -3 -18 -6 -3 -8 4 -6 17 3 13 -3 31 -14 43 -18 19 -83 119 -131 198 -17
30 -25 36 -32 25 -7 -9 -8 -8 -4 6 4 12 -3 33 -18 56 -14 21 -32 54 -40 75
-10 23 -20 34 -27 29 -7 -4 -9 -3 -5 4 3 6 -11 46 -33 89 -161 319 -276 721
-323 1128 -16 140 -16 547 0 690 56 488 212 969 433 1331 11 18 17 40 13 50
-4 14 -3 15 4 6 7 -10 13 -7 25 12 10 14 17 28 17 31 0 2 20 34 45 71 25 36
42 70 39 76 -4 7 -2 8 4 4 13 -8 35 28 24 39 -4 3 0 5 8 3 11 -2 15 5 14 24
-1 15 3 25 8 22 4 -3 5 -11 2 -17 -4 -7 7 4 24 23 30 33 42 57 24 46 -5 -3 -9
1 -9 9 0 9 4 11 11 6 7 -6 38 22 89 82 73 85 317 340 317 331 0 -3 37 28 83
67 47 41 82 79 81 89 -1 9 5 17 12 17 10 0 11 -4 3 -14 -20 -24 5 -13 41 17
22 19 28 28 15 23 -11 -3 -17 -3 -14 1 4 4 16 8 28 11 31 6 42 15 35 27 -4 7
-2 8 5 4 17 -11 40 12 36 35 -2 11 0 17 6 14 5 -4 7 -11 4 -16 -9 -13 6 -11
24 4 29 24 354 217 366 217 2 0 50 22 107 49 164 78 373 154 568 205 177 47
349 75 595 100 96 10 585 -4 693 -19z m-1673 -185 c3 -6 -1 -7 -9 -4 -18 7
-21 14 -7 14 6 0 13 -4 16 -10z m2495 6 c0 -2 -7 -7 -16 -10 -8 -3 -12 -2 -9
4 6 10 25 14 25 6z m-3447 -574 c-10 -10 -20 -17 -22 -16 -6 5 20 34 30 34 5
0 1 -8 -8 -18z m4388 1 c13 -17 13 -17 -6 -3 -11 8 -22 16 -24 17 -2 2 0 3 6
3 6 0 17 -8 24 -17z m-4750 -366 c-10 -9 -11 -8 -5 6 3 10 9 15 12 12 3 -3 0
-11 -7 -18z m5103 7 c3 -8 2 -12 -4 -9 -6 3 -10 10 -10 16 0 14 7 11 14 -7z
m-5727 -1066 c-3 -8 -6 -5 -6 6 -1 11 2 17 5 13 3 -3 4 -12 1 -19z m-154 -513
c-3 -9 -8 -14 -10 -11 -3 3 -2 9 2 15 9 16 15 13 8 -4z m6665 -10 c-3 -3 -9 2
-12 12 -6 14 -5 15 5 6 7 -7 10 -15 7 -18z m-6511 -1787 c-3 -8 -6 -5 -6 6 -1
11 2 17 5 13 3 -3 4 -12 1 -19z m6350 0 c-3 -8 -6 -5 -6 6 -1 11 2 17 5 13 3
-3 4 -12 1 -19z m-567 -1001 c0 -2 -10 -12 -22 -23 l-23 -19 19 23 c18 21 26
27 26 19z m-4786 -426 c-2 -3 -12 3 -22 13 -16 17 -16 18 5 5 12 -7 20 -15 17
-18z m4371 9 c-3 -5 -12 -10 -18 -10 -7 0 -6 4 3 10 19 12 23 12 15 0z m-111
-78 c3 -5 -1 -9 -9 -9 -8 0 -12 4 -9 9 3 4 7 8 9 8 2 0 6 -4 9 -8z m-3319
-482 c-3 -5 -12 -10 -18 -10 -7 0 -6 4 3 10 19 12 23 12 15 0z"/>
<path d="M3830 7253 c-282 -16 -594 -75 -845 -158 -156 -52 -355 -137 -348
-148 3 -6 1 -7 -5 -3 -11 7 -144 -56 -240 -112 -29 -18 -55 -32 -57 -32 -6 0
-247 -161 -294 -198 -100 -76 -190 -155 -188 -164 1 -6 -7 -12 -17 -14 -11 -1
-47 -31 -80 -65 -34 -35 -52 -56 -41 -48 18 13 19 13 6 -3 -7 -10 -17 -16 -21
-13 -11 7 -61 -50 -53 -60 5 -4 3 -5 -3 -2 -15 9 -137 -129 -128 -144 4 -8 3
-9 -4 -5 -13 8 -96 -94 -195 -237 -142 -204 -303 -502 -292 -540 4 -15 3 -18
-3 -9 -10 15 -30 -28 -88 -187 -77 -208 -135 -445 -171 -691 -26 -179 -26
-662 0 -840 17 -117 51 -293 63 -332 5 -17 165 -18 3174 -18 l3169 0 10 38
c15 56 48 235 63 342 21 148 17 662 -5 815 -57 381 -164 724 -324 1038 -43 86
-173 307 -180 307 -2 0 -1 -5 3 -12 4 -7 3 -8 -5 -4 -6 4 -9 11 -6 16 7 11 -9
38 -103 163 -107 144 -252 308 -264 301 -6 -4 -8 -3 -5 3 6 10 -48 69 -68 75
-5 2 -9 6 -8 9 4 11 -94 100 -113 103 -10 2 -18 8 -17 14 4 19 -168 155 -352
278 -150 101 -207 132 -189 102 5 -7 3 -8 -5 -4 -7 5 -10 11 -6 14 10 10 -89
65 -118 65 -15 0 -23 3 -17 7 20 12 -245 129 -445 195 -365 121 -809 180
-1185 158z m-1430 -438 c-7 -8 -17 -15 -23 -15 -6 0 -2 7 9 15 25 19 30 19 14
0z m2762 -82 c-13 -77 -11 -312 4 -390 l6 -33 -67 0 -67 0 7 33 c21 100 21
336 0 435 l-7 32 69 0 69 0 -14 -77z m-1180 -109 c2 -9 1 -45 0 -80 l-4 -64
-103 0 -103 0 -1 80 0 80 104 0 c87 0 104 -3 107 -16z m-1211 -49 l39 -7 0
-121 0 -122 -105 -1 c-58 0 -105 3 -105 8 -1 4 -1 60 -1 123 0 63 0 116 1 118
0 6 136 8 171 2z m929 -235 c0 -60 4 -100 10 -100 6 0 10 40 10 100 l0 99 160
0 160 -1 0 -99 c0 -59 4 -99 10 -99 6 0 10 40 10 100 0 60 4 100 10 100 6 0
10 -41 10 -104 l0 -103 -59 -6 c-49 -5 -160 -5 -313 2 l-28 1 0 105 c0 63 4
105 10 105 6 0 10 -40 10 -100z m2123 -42 c-2 -62 -6 -127 -9 -144 -4 -30 -6
-31 -63 -33 -43 -1 -60 2 -64 13 -4 11 -11 239 -8 269 1 4 34 7 74 7 l73 0 -3
-112z m-2923 -48 c0 -55 -4 -59 -29 -32 -17 20 -54 42 -68 42 -17 0 -53 -41
-53 -60 0 -11 29 -48 64 -84 78 -78 98 -107 87 -125 -7 -10 -45 22 -150 128
-77 78 -148 141 -158 141 -31 -1 -53 -25 -53 -59 0 -27 16 -48 110 -141 61
-60 110 -114 110 -120 0 -27 -39 2 -133 98 -56 56 -106 102 -113 102 -17 0
-19 141 -2 151 7 5 97 9 201 9 l187 0 0 -50z m2356 9 c27 -48 25 -49 -151 -49
-109 0 -165 4 -165 10 0 6 6 23 14 38 l14 27 138 -1 c133 -2 137 -2 150 -25z
m1078 -7 c3 -5 -1 -9 -9 -9 -8 0 -12 4 -9 9 3 4 7 8 9 8 2 0 6 -4 9 -8z
m-3709 -52 c3 -11 12 -20 20 -20 7 0 15 -9 18 -21 3 -13 12 -19 24 -17 11 2
17 -2 15 -11 -4 -19 48 -72 67 -69 9 2 15 -3 13 -11 -3 -17 17 -43 29 -35 5 3
9 -1 9 -9 0 -14 27 -32 42 -29 4 1 5 -5 2 -13 -4 -8 -1 -15 6 -15 6 0 8 -4 5
-10 -3 -5 -14 -10 -23 -10 -22 0 -272 250 -272 272 0 25 37 23 45 -2z m232
-22 c39 -41 47 -56 44 -85 -1 -13 -111 91 -111 106 0 9 11 21 20 21 3 0 24
-19 47 -42z m932 -91 c-2 -57 1 -109 5 -115 4 -7 4 -12 -1 -12 -4 0 -8 -35 -8
-77 l0 -78 -52 -3 -53 -3 0 80 0 81 33 2 32 1 -32 4 -33 4 0 110 0 109 56 0
55 0 -2 -103z m143 1 c5 -159 6 -155 -50 -148 -41 4 -47 8 -46 28 0 12 -2 22
-5 22 -5 0 -6 42 -2 168 1 32 2 32 50 32 l50 0 3 -102z m148 -23 c0 -123 0
-125 -22 -126 l-23 -2 23 -4 c20 -4 22 -10 22 -69 l0 -65 -52 3 -53 3 -3 58
c-3 56 -3 57 25 58 l28 1 -25 7 c-25 7 -25 8 -28 134 l-3 127 56 0 55 0 0
-125z m827 -64 c1 -95 4 -176 7 -179 3 -3 6 76 6 176 l0 182 188 -3 187 -2 0
-185 0 -185 -207 -1 -208 -2 0 190 c0 147 3 189 13 185 9 -3 12 -48 14 -176z
m423 -11 c0 -120 -4 -190 -10 -190 -6 0 -10 70 -10 190 0 120 4 190 10 190 6
0 10 -70 10 -190z m-2740 29 c39 -39 70 -75 70 -80 0 -26 -45 -3 -99 50 -55
54 -79 101 -51 101 6 0 42 -32 80 -71z m3275 1 l0 -64 -114 0 -115 0 0 67 -1
68 115 -3 115 -3 0 -65z m-3333 -57 c24 -22 23 -35 -4 -31 -15 2 -24 11 -26
26 -4 26 5 28 30 5z m1394 -46 c2 -2 7 -85 5 -102 -1 -5 -23 -10 -50 -10 l-49
0 -5 55 c-2 30 -2 59 1 64 4 7 90 1 98 -7z m1995 -9 c0 -10 2 -10 6 0 15 38
23 -3 23 -123 0 -83 -4 -135 -10 -135 -5 0 -11 8 -11 18 -1 16 -2 16 -6 -1 -4
-17 -19 -18 -189 -16 l-184 1 0 134 0 134 185 0 c141 0 185 -3 186 -12z
m-3400 -35 c7 -52 -3 -313 -12 -313 -5 0 -9 75 -9 170 0 94 4 170 9 170 5 0
10 -12 12 -27z m339 -143 l0 -170 -160 0 -160 0 0 170 0 170 160 0 160 0 0
-170z m40 0 c0 -107 -4 -170 -10 -170 -6 0 -10 63 -10 170 0 107 4 170 10 170
6 0 10 -63 10 -170z m2398 -18 l-3 -57 -197 0 c-108 0 -191 -3 -185 -7 7 -5 8
-8 2 -8 -23 0 -35 26 -35 75 0 29 2 54 4 56 2 2 97 3 211 1 l206 -3 -3 -57z
m-1598 -47 c0 -63 -4 -105 -10 -105 -6 0 -10 42 -10 105 0 63 4 105 10 105 6
0 10 -42 10 -105z m380 0 c0 -63 -4 -105 -10 -105 -6 0 -10 40 -10 100 0 60
-4 100 -10 100 -6 0 -10 -42 -10 -106 0 -93 -2 -105 -16 -100 -9 3 -80 6 -159
6 l-144 0 -3 105 -3 105 183 0 182 0 0 -105z m1250 55 c0 -27 0 -53 1 -57 0
-4 -4 -9 -10 -11 -7 -2 -11 18 -11 57 0 34 4 61 10 61 6 0 10 -22 10 -50z
m-352 -99 l42 -1 0 -85 0 -85 -47 -2 -48 -2 48 -3 47 -4 0 -54 c0 -30 -3 -55
-7 -57 -5 -2 -36 -2 -70 0 l-63 4 0 59 c0 40 4 59 13 60 10 0 10 2 0 6 -13 5
-19 153 -8 165 3 2 15 4 27 2 13 -1 42 -3 66 -3z m353 -132 c0 -74 0 -141 0
-149 -1 -12 -14 -14 -71 -12 l-70 4 0 68 0 69 58 6 c82 9 89 16 10 10 l-68 -6
0 70 0 70 68 3 c37 2 68 3 70 2 1 -1 3 -61 3 -135z m-179 -14 l3 -145 -47 0
-47 0 0 145 -1 145 45 0 44 0 3 -145z m435 133 c3 9 47 12 169 12 149 0 164
-2 165 -17 1 -17 2 -17 6 0 10 36 23 15 23 -38 0 -30 -4 -55 -10 -55 -5 0 -11
8 -11 18 -1 16 -2 16 -6 -1 -4 -17 -19 -18 -189 -16 l-184 1 0 47 c0 51 8 69
23 49 7 -10 10 -10 14 0z m-3522 -90 c12 -60 31 -92 48 -81 6 4 7 1 2 -7 -4
-7 -2 -16 5 -20 30 -19 -7 -25 -138 -22 -140 3 -140 3 -138 27 0 12 4 21 8 19
12 -8 36 39 43 86 4 25 9 47 10 50 2 3 36 5 76 4 l73 -1 11 -55z m455 -761 c0
-521 3 -767 10 -767 7 0 10 247 10 770 l0 769 329 1 c286 0 329 -2 335 -15 3
-8 11 -15 18 -15 7 0 18 -10 23 -22 6 -12 19 -26 29 -32 11 -6 33 -26 50 -45
17 -19 48 -51 69 -72 23 -24 37 -48 38 -66 1 -17 3 -21 6 -10 5 19 18 23 28 8
3 -6 5 -293 5 -640 0 -601 1 -630 18 -643 41 -29 52 -62 54 -157 2 -100 -5
-116 -49 -105 -22 6 -22 5 -22 -118 0 -67 0 -133 -1 -145 0 -24 -29 -33 -31
-10 0 10 -2 10 -6 0 -4 -10 -103 -13 -449 -13 l-444 0 0 150 c0 88 -4 150 -9
150 -6 0 -10 -59 -10 -142 0 -79 0 -149 -1 -156 0 -7 -4 -10 -10 -7 -6 4 -10
70 -10 165 0 142 -2 163 -20 192 -12 20 -20 51 -20 78 0 27 8 58 20 78 20 32
20 51 20 813 0 549 3 780 11 777 7 -2 10 -235 9 -771z m1180 3 c0 -500 3 -760
10 -760 7 0 10 260 10 760 0 500 3 760 10 760 6 0 10 -5 10 -11 0 -8 4 -8 14
0 10 8 128 11 432 9 l419 -3 2 -520 c2 -286 4 -565 6 -620 1 -55 4 180 5 523
2 545 4 622 17 622 13 0 15 -76 15 -620 0 -536 2 -620 15 -620 31 0 68 -26 86
-62 23 -45 24 -89 4 -128 -17 -32 -42 -42 -30 -12 4 9 10 36 12 59 5 38 2 46
-27 73 -31 29 -60 39 -60 21 0 -5 10 -11 23 -15 66 -16 62 -150 -5 -172 -16
-5 -19 -11 -13 -32 13 -46 17 -264 6 -287 -6 -11 -12 -81 -13 -155 -4 -183
-21 -177 -28 10 -7 170 -11 159 -10 -22 l1 -128 -448 0 -448 0 3 245 c2 164
-1 245 -8 245 -6 0 -10 -83 -10 -245 0 -157 -4 -245 -10 -245 -6 0 -10 57 -10
150 0 137 -2 150 -16 142 -26 -14 -54 -2 -60 25 -4 14 -4 60 -1 104 5 81 31
139 63 139 12 0 14 108 14 765 0 503 3 765 10 765 7 0 10 -260 10 -760z m-336
706 c8 -14 25 -26 37 -28 16 -2 23 -11 25 -35 6 -51 -14 -49 -69 5 -43 43 -49
53 -38 66 18 22 26 20 45 -8z m2221 3 c4 8 58 11 171 10 146 -1 164 -3 165
-17 1 -15 2 -15 6 1 2 9 9 17 14 17 12 0 12 -267 -1 -275 -5 -3 -11 4 -11 17
-2 23 -2 23 -6 1 -4 -22 -7 -22 -161 -22 -86 0 -164 5 -174 10 -12 7 -18 6
-18 -1 0 -6 -4 -8 -10 -5 -11 7 -14 258 -3 268 4 4 10 2 14 -4 5 -8 8 -8 14 0z
m-3428 -241 l2 -128 -177 0 -177 0 2 123 c1 67 2 125 2 130 1 4 79 6 174 5
l172 -3 2 -127z m2996 67 l178 0 -1 -647 c0 -450 3 -648 10 -648 18 0 60 -48
60 -68 0 -10 -16 -35 -35 -55 -39 -40 -45 -72 -15 -82 11 -3 23 -18 26 -32 10
-39 -18 -56 -81 -48 -120 15 -195 17 -210 5 -9 -8 -25 -9 -42 -4 -41 11 -85
13 -109 4 -43 -17 -54 4 -54 100 0 88 0 90 -26 96 -35 9 -44 -7 -44 -86 0 -82
-7 -108 -32 -115 -37 -12 -48 11 -48 107 0 133 32 181 121 181 l29 0 2 646 3
646 37 -1 c24 -1 35 2 31 9 -4 6 -1 7 8 1 8 -4 94 -9 192 -9z m505 -125 c45 3
123 3 172 2 87 -4 89 -4 93 -30 3 -24 4 -23 6 6 0 19 5 31 11 27 7 -4 10 -307
10 -876 0 -573 -3 -869 -10 -869 -5 0 -11 8 -11 18 -1 16 -2 16 -6 -1 -4 -17
-19 -18 -189 -16 l-184 1 0 867 c0 477 3 871 7 874 4 4 9 4 12 -1 3 -4 43 -5
89 -2z m767 -85 c0 -18 -8 -20 -77 -23 -71 -3 -78 -1 -78 16 0 30 10 33 85 30
62 -3 70 -5 70 -23z m-4323 -21 c3 -3 4 -14 1 -24 -5 -17 -17 -19 -120 -22
-108 -3 -116 -2 -123 17 -4 11 -6 23 -3 28 5 8 237 10 245 1z m4428 -198 l0
-164 -180 0 -180 0 0 164 0 164 180 0 180 0 0 -164z m-4333 103 c66 -32 87
-69 92 -161 l3 -78 -311 0 -311 0 0 62 c0 82 27 138 83 172 41 24 48 25 221
26 162 0 184 -2 223 -21z m4653 -35 c6 -14 10 -156 10 -330 l0 -304 -30 0 -30
0 0 304 c0 291 5 356 30 356 6 0 15 -12 20 -26z m-5504 -184 c4 -28 17 -67 30
-86 28 -40 31 -59 8 -50 -9 3 -69 6 -135 6 -76 0 -119 4 -119 10 0 6 10 24 22
41 16 22 23 45 23 78 l0 48 82 2 82 2 7 -51z m353 -37 c-1 -5 0 -224 2 -488
l4 -480 5 478 5 479 243 -1 c186 -1 242 2 242 12 0 9 3 8 9 -2 6 -9 14 -10 27
-3 18 10 19 -4 19 -476 l0 -487 5 479 c4 371 8 480 18 484 9 3 12 -99 12 -486
l0 -491 -310 0 -310 0 0 489 c0 478 1 491 28 499 1 1 1 -2 1 -6z m4831 -663
l0 -620 -180 0 -180 0 0 620 0 620 180 0 180 0 0 -620z m-5090 405 l0 -135
-175 0 -175 0 0 133 c0 74 2 136 4 138 2 2 81 3 175 1 l171 -3 0 -134z m-35
-184 c43 -27 55 -66 55 -172 0 -113 12 -100 -117 -119 -39 -5 -117 -10 -173
-10 l-102 0 4 130 c3 125 4 131 29 154 14 13 34 26 45 29 38 11 239 2 259 -12z
m5503 -13 c7 -7 12 -22 12 -35 0 -28 -24 -35 -110 -31 -59 3 -65 5 -68 26 -6
40 14 52 87 52 39 0 72 -5 79 -12z m-109 -118 c1 11 13 15 45 16 l44 1 6 -161
c3 -89 7 -228 8 -311 l3 -149 -78 -3 -79 -2 6 142 c3 78 8 216 12 307 6 166
11 200 25 164 5 -13 8 -14 8 -4z m-5341 -417 c3 -322 22 -296 -204 -291 -133
2 -167 6 -174 18 -6 8 -10 124 -10 262 l0 246 93 -5 c61 -3 116 1 162 10 39 8
84 14 100 14 l30 -2 3 -252z m4078 60 c15 -59 -27 -98 -73 -67 -28 18 -31 68
-5 83 30 18 72 9 78 -16z m-3246 -191 c0 -107 -1 -114 -25 -137 l-24 -25 -258
0 c-187 1 -262 4 -274 13 -31 24 -39 56 -39 159 l0 103 310 0 310 0 0 -113z
m2614 -30 c4 -110 2 -132 -10 -132 -11 0 -14 23 -14 128 0 112 5 151 16 139 2
-2 6 -63 8 -135z m394 0 l3 -132 -191 0 -190 0 0 133 0 132 187 -1 188 0 3
-132z m37 -2 c0 -97 -3 -130 -12 -130 -10 0 -13 34 -13 135 0 103 3 133 13
130 9 -4 12 -40 12 -135z m1575 -74 c0 -22 -49 -56 -81 -56 -33 0 -86 41 -75
58 11 19 156 16 156 -2z"/>
<path d="M4913 5715 c0 -27 2 -38 4 -22 2 15 2 37 0 50 -2 12 -4 0 -4 -28z"/>
<path d="M5093 5453 c9 -2 25 -2 35 0 9 3 1 5 -18 5 -19 0 -27 -2 -17 -5z"/>
<path d="M2941 5304 c0 -11 3 -14 6 -6 3 7 2 16 -1 19 -3 4 -6 -2 -5 -13z"/>
<path d="M2967 5300 c6 -23 28 -27 36 -6 7 17 -1 26 -24 26 -12 0 -16 -6 -12
-20z"/>
<path d="M3025 5312 c4 -8 0 -21 -11 -33 -9 -10 -13 -19 -8 -19 5 0 15 10 22
21 11 17 11 24 1 33 -9 8 -10 8 -4 -2z"/>
<path d="M3434 5130 c0 -52 1 -74 3 -47 2 26 2 68 0 95 -2 26 -3 4 -3 -48z"/>
<path d="M3434 4200 c0 -113 2 -159 3 -102 2 56 2 148 0 205 -1 56 -3 10 -3
-103z"/>
<path d="M3432 3960 c0 -14 2 -19 5 -12 2 6 2 18 0 25 -3 6 -5 1 -5 -13z"/>
<path d="M2525 3960 c-3 -5 -1 -18 4 -27 9 -16 10 -14 11 10 0 28 -5 34 -15
17z"/>
<path d="M3475 3928 c4 -18 9 -68 12 -110 3 -59 8 -78 19 -78 24 0 19 146 -6
188 -11 17 -23 32 -26 32 -3 0 -3 -15 1 -32z"/>
<path d="M2485 3887 c-4 -18 -2 -49 3 -68 9 -31 10 -28 11 34 1 73 -5 86 -14
34z"/>
<path d="M3433 3855 c0 -38 2 -53 4 -32 2 20 2 52 0 70 -2 17 -4 1 -4 -38z"/>
<path d="M2531 3854 c0 -11 3 -14 6 -6 3 7 2 16 -1 19 -3 4 -6 -2 -5 -13z"/>
<path d="M2522 3785 c-1 -13 3 -27 8 -30 6 -4 10 7 10 24 0 37 -15 42 -18 6z"/>
<path d="M3434 3600 c0 -69 1 -97 3 -62 2 34 2 90 0 125 -2 34 -3 6 -3 -63z"/>
<path d="M2952 3678 c-13 -13 -16 -54 -4 -61 4 -3 7 9 7 26 0 24 5 32 25 38
21 6 22 7 5 8 -12 1 -26 -4 -33 -11z"/>
<path d="M2973 3663 c-18 -7 -16 -30 4 -37 24 -10 41 11 23 28 -8 7 -21 12
-27 9z"/>
<path d="M3023 3644 c0 -17 2 -22 7 -13 5 6 6 18 3 26 -8 19 -10 16 -10 -13z"/>
<path d="M4138 5339 c-26 -15 -23 -65 3 -80 48 -25 96 34 58 72 -21 21 -36 23
-61 8z m50 -11 c29 -29 3 -72 -36 -61 -16 4 -22 13 -22 33 0 37 33 53 58 28z"/>
<path d="M4145 5310 c-4 -7 -3 -16 3 -22 14 -14 45 -2 40 15 -6 16 -34 21 -43
7z m25 -10 c0 -5 -5 -10 -11 -10 -5 0 -7 5 -4 10 3 6 8 10 11 10 2 0 4 -4 4
-10z"/>
<path d="M4605 4231 c-3 -5 -1 -12 5 -16 5 -3 10 1 10 9 0 18 -6 21 -15 7z"/>
<path d="M4650 4165 c0 -8 5 -15 10 -15 14 0 13 -33 -2 -48 -6 -6 -8 -15 -4
-19 11 -11 36 26 36 52 0 21 -17 45 -32 45 -4 0 -8 -7 -8 -15z"/>
<path d="M4612 4145 c0 -16 2 -22 5 -12 2 9 2 23 0 30 -3 6 -5 -1 -5 -18z"/>
<path d="M4572 4115 c0 -16 2 -22 5 -12 2 9 2 23 0 30 -3 6 -5 -1 -5 -18z"/>
<path d="M4611 4084 c0 -11 3 -14 6 -6 3 7 2 16 -1 19 -3 4 -6 -2 -5 -13z"/>
<path d="M4612 4020 c0 -14 2 -19 5 -12 2 6 2 18 0 25 -3 6 -5 1 -5 -13z"/>
<path d="M3700 3959 c0 -11 5 -17 10 -14 6 3 10 13 10 21 0 8 -4 14 -10 14 -5
0 -10 -9 -10 -21z"/>
<path d="M4614 3870 c0 -63 1 -89 3 -57 2 31 2 83 0 115 -2 31 -3 5 -3 -58z"/>
<path d="M3652 3946 c-19 -25 -22 -41 -22 -118 0 -67 3 -89 13 -86 8 3 13 30
15 79 1 41 7 84 13 95 6 12 9 30 7 40 -3 16 -6 15 -26 -10z"/>
<path d="M3743 3800 c0 -25 2 -35 4 -22 2 12 2 32 0 45 -2 12 -4 2 -4 -23z"/>
<path d="M4137 3686 c-13 -10 -17 -24 -15 -48 3 -30 6 -33 40 -36 28 -2 39 1
47 16 14 27 3 58 -25 71 -30 13 -25 13 -47 -3z m58 -41 c0 -27 -3 -30 -30 -30
-21 0 -31 5 -33 18 -6 33 6 49 35 45 24 -3 28 -8 28 -33z"/>
<path d="M4143 3654 c-8 -20 17 -36 34 -22 10 8 10 14 2 24 -15 18 -28 18 -36
-2z"/>
<path d="M4908 4634 c-2 -355 0 -648 5 -651 4 -2 7 289 7 646 0 358 -2 651 -5
651 -3 0 -6 -291 -7 -646z"/>
<path d="M5305 4640 c0 -355 1 -500 2 -323 2 178 2 468 0 645 -1 178 -2 33 -2
-322z"/>
<path d="M5056 5018 c-21 -29 -20 -40 5 -72 25 -32 59 -33 87 -3 26 28 27 45
6 75 -10 15 -25 22 -49 22 -24 0 -39 -7 -49 -22z m87 -9 c30 -42 -16 -94 -60
-70 -44 23 -27 91 22 91 13 0 30 -9 38 -21z"/>
<path d="M4780 3955 c-21 -22 -25 -35 -28 -120 -4 -83 -2 -95 12 -95 13 0 16
13 16 79 0 94 17 125 68 123 25 0 32 3 32 19 0 29 -67 25 -100 -6z"/>
<path d="M5301 3964 c0 -11 3 -14 6 -6 3 7 2 16 -1 19 -3 4 -6 -2 -5 -13z"/>
<path d="M5330 3919 l0 -51 26 32 c25 30 26 31 9 50 -28 31 -35 24 -35 -31z"/>
<path d="M4914 3830 c0 -52 1 -74 3 -47 2 26 2 68 0 95 -2 26 -3 4 -3 -48z"/>
<path d="M5302 3870 c0 -19 2 -27 5 -17 2 9 2 25 0 35 -3 9 -5 1 -5 -18z"/>
<path d="M5301 3804 c0 -11 3 -14 6 -6 3 7 2 16 -1 19 -3 4 -6 -2 -5 -13z"/>
<path d="M5301 3754 c0 -11 3 -14 6 -6 3 7 2 16 -1 19 -3 4 -6 -2 -5 -13z"/>
<path d="M5330 3756 c0 -8 5 -18 10 -21 6 -3 10 3 10 14 0 12 -4 21 -10 21 -5
0 -10 -6 -10 -14z"/>
<path d="M6337 4944 c-4 -4 -7 -18 -7 -30 0 -17 -7 -23 -27 -26 -37 -4 -37
-32 -1 -36 21 -3 27 -9 30 -30 2 -16 9 -27 18 -27 9 0 16 11 18 27 3 21 9 27
30 30 16 2 27 9 27 18 0 9 -11 16 -27 18 -20 2 -28 9 -30 29 -3 27 -18 39 -31
27z"/>
<path d="M6275 3560 c-14 -22 12 -31 81 -28 53 2 69 6 69 18 0 12 -16 16 -72
18 -45 2 -74 -1 -78 -8z"/>
<path d="M5489 3789 c12 -5 21 -15 18 -22 -2 -6 -1 -21 3 -32 7 -18 8 -17 15
8 9 33 -8 57 -39 56 -20 0 -20 -1 3 -10z"/>
<path d="M5450 3760 c0 -11 4 -20 9 -20 6 0 9 9 8 20 -1 11 -5 20 -9 20 -4 0
-8 -9 -8 -20z"/>
<path d="M5480 3736 c0 -9 5 -16 10 -16 6 0 10 4 10 9 0 6 -4 13 -10 16 -5 3
-10 -1 -10 -9z"/>
<path d="M2418 3193 c870 -2 2294 -2 3165 0 870 1 158 2 -1583 2 -1741 0
-2453 -1 -1582 -2z"/>
<path d="M1858 2931 c-59 -20 -107 -39 -105 -43 1 -3 94 -281 207 -617 l205
-611 110 0 110 0 43 128 c24 70 51 154 62 187 10 33 84 253 164 490 79 236
144 430 143 431 -1 0 -50 17 -108 36 l-105 35 -149 -446 c-82 -245 -152 -450
-155 -454 -8 -9 -39 78 -198 553 -60 179 -111 330 -113 336 -3 7 -41 -1 -111
-25z"/>
<path d="M3185 2903 c-33 -88 -166 -427 -195 -498 -16 -38 -54 -133 -84 -210
-30 -77 -84 -216 -121 -308 -37 -93 -65 -170 -63 -171 19 -14 203 -75 209 -69
3 5 23 51 44 103 20 52 43 107 51 122 l15 28 272 -2 272 -3 52 -120 c29 -66
53 -124 55 -129 4 -8 183 58 200 73 7 6 -33 114 -224 596 -42 105 -102 256
-134 337 -32 81 -61 145 -65 142 -4 -2 -11 1 -15 7 -4 8 -3 9 4 5 17 -10 15 1
-14 76 l-26 68 -108 0 -107 0 -18 -47z m167 -406 c117 -294 138 -349 138 -361
0 -11 -36 -13 -177 -11 -98 2 -179 4 -181 6 -4 5 0 16 94 251 41 103 74 192
74 198 0 30 19 0 52 -83z"/>
<path d="M4082 2883 l-62 -58 0 -577 0 -578 115 0 115 0 2 256 3 256 180 -2
c253 -1 344 23 437 116 189 189 135 491 -110 607 l-67 32 -275 3 -275 2 -63
-57z m594 -189 c90 -43 111 -179 36 -239 -54 -43 -61 -44 -264 -45 l-198 0 0
150 0 150 196 0 c160 0 202 -3 230 -16z"/>
<path d="M5167 2881 l-57 -59 0 -519 0 -519 58 -57 58 -57 358 0 358 0 -4 113
-3 112 -297 3 -297 2 -3 181 c-2 99 -1 183 1 185 2 2 118 4 258 4 l254 0 -3
113 -3 112 -255 3 -255 2 3 108 3 107 280 -3 279 -3 0 116 0 115 -338 0 -338
0 -57 -59z m18 -1139 c-3 -3 -11 0 -18 7 -9 10 -8 11 6 5 10 -3 15 -9 12 -12z"/>
<path d="M3067 1323 c513 -2 1353 -2 1865 0 513 1 94 2 -932 2 -1026 0 -1445
-1 -933 -2z"/>
<path d="M2255 1249 c60 -40 129 -79 140 -79 3 0 3 5 -1 12 -4 7 -3 8 5 4 6
-4 9 -11 6 -15 -8 -13 111 -72 132 -65 12 4 14 3 6 -3 -16 -11 72 -57 89 -47
6 4 8 3 5 -3 -4 -6 45 -32 119 -62 849 -350 1797 -328 2627 61 48 23 83 44 77
48 -6 4 2 7 17 7 29 0 129 56 126 70 -1 4 1 10 4 13 4 3 3 -1 -1 -7 -4 -7 -4
-13 -1 -13 11 0 80 39 140 79 l60 41 -1805 0 -1805 0 60 -41z"/>
</g>
</svg>
